<?xml version="1.0" encoding="utf-8"?><!DOCTYPE svg PUBLIC "-//W3C//DTD SVG 1.1//EN" "http://www.w3.org/Graphics/SVG/1.1/DTD/svg11.dtd"><svg xmlns:xlink="http://www.w3.org/1999/xlink" xmlns="http://www.w3.org/2000/svg" id="map" viewBox="0 0 246 246" width="1000" height="1000" fill="#ffffff" data-dot="6"><rect x="0" y="0" height="246" width="246"/><defs/><g fill="#000000"><rect x="24" y="204" width="18" height="18" transform="rotate(-90,33,213)"/><path clip-rule="evenodd" class="svgeye" d="M 12 192v 42h 42v -42zM 18 198h 30v 30h -30z" transform="rotate(-90,33,213)"/><rect x="204" y="24" width="18" height="18" transform="rotate(90,213,33)"/><path clip-rule="evenodd" class="svgeye" d="M 192 12v 42h 42v -42zM 198 18h 30v 30h -30z" transform="rotate(90,213,33)"/><rect x="24" y="24" width="18" height="18" transform="rotate(0,33,33)"/><path clip-rule="evenodd" class="svgeye" d="M 12 12v 42h 42v -42zM 18 18h 30v 30h -30z" transform="rotate(0,33,33)"/><rect x="66" y="12" width="6" height="6" transform="rotate(0,69,15)"/><rect x="72" y="12" width="6" height="6" transform="rotate(0,75,15)"/><rect x="84" y="12" width="6" height="6" transform="rotate(0,87,15)"/><rect x="108" y="12" width="6" height="6" transform="rotate(0,111,15)"/><rect x="114" y="12" width="6" height="6" transform="rotate(0,117,15)"/><rect x="120" y="12" width="6" height="6" transform="rotate(0,123,15)"/><rect x="126" y="12" width="6" height="6" transform="rotate(0,129,15)"/><rect x="138" y="12" width="6" height="6" transform="rotate(0,141,15)"/><rect x="144" y="12" width="6" height="6" transform="rotate(0,147,15)"/><rect x="150" y="12" width="6" height="6" transform="rotate(0,153,15)"/><rect x="156" y="12" width="6" height="6" transform="rotate(0,159,15)"/><rect x="162" y="12" width="6" height="6" transform="rotate(0,165,15)"/><rect x="168" y="12" width="6" height="6" transform="rotate(0,171,15)"/><rect x="60" y="18" width="6" height="6" transform="rotate(0,63,21)"/><rect x="66" y="18" width="6" height="6" transform="rotate(0,69,21)"/><rect x="90" y="18" width="6" height="6" transform="rotate(0,93,21)"/><rect x="96" y="18" width="6" height="6" transform="rotate(0,99,21)"/><rect x="120" y="18" width="6" height="6" transform="rotate(0,123,21)"/><rect x="144" y="18" width="6" height="6" transform="rotate(0,147,21)"/><rect x="162" y="18" width="6" height="6" transform="rotate(0,165,21)"/><rect x="180" y="18" width="6" height="6" transform="rotate(0,183,21)"/><rect x="66" y="24" width="6" height="6" transform="rotate(0,69,27)"/><rect x="78" y="24" width="6" height="6" transform="rotate(0,81,27)"/><rect x="84" y="24" width="6" height="6" transform="rotate(0,87,27)"/><rect x="90" y="24" width="6" height="6" transform="rotate(0,93,27)"/><rect x="102" y="24" width="6" height="6" transform="rotate(0,105,27)"/><rect x="108" y="24" width="6" height="6" transform="rotate(0,111,27)"/><rect x="120" y="24" width="6" height="6" transform="rotate(0,123,27)"/><rect x="132" y="24" width="6" height="6" transform="rotate(0,135,27)"/><rect x="138" y="24" width="6" height="6" transform="rotate(0,141,27)"/><rect x="144" y="24" width="6" height="6" transform="rotate(0,147,27)"/><rect x="150" y="24" width="6" height="6" transform="rotate(0,153,27)"/><rect x="162" y="24" width="6" height="6" transform="rotate(0,165,27)"/><rect x="168" y="24" width="6" height="6" transform="rotate(0,171,27)"/><rect x="174" y="24" width="6" height="6" transform="rotate(0,177,27)"/><rect x="60" y="30" width="6" height="6" transform="rotate(0,63,33)"/><rect x="72" y="30" width="6" height="6" transform="rotate(0,75,33)"/><rect x="78" y="30" width="6" height="6" transform="rotate(0,81,33)"/><rect x="84" y="30" width="6" height="6" transform="rotate(0,87,33)"/><rect x="90" y="30" width="6" height="6" transform="rotate(0,93,33)"/><rect x="96" y="30" width="6" height="6" transform="rotate(0,99,33)"/><rect x="102" y="30" width="6" height="6" transform="rotate(0,105,33)"/><rect x="138" y="30" width="6" height="6" transform="rotate(0,141,33)"/><rect x="150" y="30" width="6" height="6" transform="rotate(0,153,33)"/><rect x="162" y="30" width="6" height="6" transform="rotate(0,165,33)"/><rect x="180" y="30" width="6" height="6" transform="rotate(0,183,33)"/><rect x="60" y="36" width="6" height="6" transform="rotate(0,63,39)"/><rect x="72" y="36" width="6" height="6" transform="rotate(0,75,39)"/><rect x="90" y="36" width="6" height="6" transform="rotate(0,93,39)"/><rect x="96" y="36" width="6" height="6" transform="rotate(0,99,39)"/><rect x="108" y="36" width="6" height="6" transform="rotate(0,111,39)"/><rect x="120" y="36" width="6" height="6" transform="rotate(0,123,39)"/><rect x="144" y="36" width="6" height="6" transform="rotate(0,147,39)"/><rect x="72" y="42" width="6" height="6" transform="rotate(0,75,45)"/><rect x="78" y="42" width="6" height="6" transform="rotate(0,81,45)"/><rect x="90" y="42" width="6" height="6" transform="rotate(0,93,45)"/><rect x="102" y="42" width="6" height="6" transform="rotate(0,105,45)"/><rect x="108" y="42" width="6" height="6" transform="rotate(0,111,45)"/><rect x="120" y="42" width="6" height="6" transform="rotate(0,123,45)"/><rect x="126" y="42" width="6" height="6" transform="rotate(0,129,45)"/><rect x="132" y="42" width="6" height="6" transform="rotate(0,135,45)"/><rect x="138" y="42" width="6" height="6" transform="rotate(0,141,45)"/><rect x="150" y="42" width="6" height="6" transform="rotate(0,153,45)"/><rect x="162" y="42" width="6" height="6" transform="rotate(0,165,45)"/><rect x="168" y="42" width="6" height="6" transform="rotate(0,171,45)"/><rect x="60" y="48" width="6" height="6" transform="rotate(0,63,51)"/><rect x="72" y="48" width="6" height="6" transform="rotate(0,75,51)"/><rect x="84" y="48" width="6" height="6" transform="rotate(0,87,51)"/><rect x="96" y="48" width="6" height="6" transform="rotate(0,99,51)"/><rect x="108" y="48" width="6" height="6" transform="rotate(0,111,51)"/><rect x="120" y="48" width="6" height="6" transform="rotate(0,123,51)"/><rect x="132" y="48" width="6" height="6" transform="rotate(0,135,51)"/><rect x="144" y="48" width="6" height="6" transform="rotate(0,147,51)"/><rect x="156" y="48" width="6" height="6" transform="rotate(0,159,51)"/><rect x="168" y="48" width="6" height="6" transform="rotate(0,171,51)"/><rect x="180" y="48" width="6" height="6" transform="rotate(0,183,51)"/><rect x="60" y="54" width="6" height="6" transform="rotate(0,63,57)"/><rect x="84" y="54" width="6" height="6" transform="rotate(0,87,57)"/><rect x="96" y="54" width="6" height="6" transform="rotate(0,99,57)"/><rect x="108" y="54" width="6" height="6" transform="rotate(0,111,57)"/><rect x="120" y="54" width="6" height="6" transform="rotate(0,123,57)"/><rect x="132" y="54" width="6" height="6" transform="rotate(0,135,57)"/><rect x="144" y="54" width="6" height="6" transform="rotate(0,147,57)"/><rect x="150" y="54" width="6" height="6" transform="rotate(0,153,57)"/><rect x="162" y="54" width="6" height="6" transform="rotate(0,165,57)"/><rect x="168" y="54" width="6" height="6" transform="rotate(0,171,57)"/><rect x="174" y="54" width="6" height="6" transform="rotate(0,177,57)"/><rect x="180" y="54" width="6" height="6" transform="rotate(0,183,57)"/><rect x="18" y="60" width="6" height="6" transform="rotate(0,21,63)"/><rect x="30" y="60" width="6" height="6" transform="rotate(0,33,63)"/><rect x="36" y="60" width="6" height="6" transform="rotate(0,39,63)"/><rect x="42" y="60" width="6" height="6" transform="rotate(0,45,63)"/><rect x="48" y="60" width="6" height="6" transform="rotate(0,51,63)"/><rect x="60" y="60" width="6" height="6" transform="rotate(0,63,63)"/><rect x="66" y="60" width="6" height="6" transform="rotate(0,69,63)"/><rect x="96" y="60" width="6" height="6" transform="rotate(0,99,63)"/><rect x="108" y="60" width="6" height="6" transform="rotate(0,111,63)"/><rect x="114" y="60" width="6" height="6" transform="rotate(0,117,63)"/><rect x="120" y="60" width="6" height="6" transform="rotate(0,123,63)"/><rect x="126" y="60" width="6" height="6" transform="rotate(0,129,63)"/><rect x="138" y="60" width="6" height="6" transform="rotate(0,141,63)"/><rect x="150" y="60" width="6" height="6" transform="rotate(0,153,63)"/><rect x="156" y="60" width="6" height="6" transform="rotate(0,159,63)"/><rect x="168" y="60" width="6" height="6" transform="rotate(0,171,63)"/><rect x="186" y="60" width="6" height="6" transform="rotate(0,189,63)"/><rect x="192" y="60" width="6" height="6" transform="rotate(0,195,63)"/><rect x="204" y="60" width="6" height="6" transform="rotate(0,207,63)"/><rect x="210" y="60" width="6" height="6" transform="rotate(0,213,63)"/><rect x="222" y="60" width="6" height="6" transform="rotate(0,225,63)"/><rect x="12" y="66" width="6" height="6" transform="rotate(0,15,69)"/><rect x="18" y="66" width="6" height="6" transform="rotate(0,21,69)"/><rect x="24" y="66" width="6" height="6" transform="rotate(0,27,69)"/><rect x="30" y="66" width="6" height="6" transform="rotate(0,33,69)"/><rect x="36" y="66" width="6" height="6" transform="rotate(0,39,69)"/><rect x="42" y="66" width="6" height="6" transform="rotate(0,45,69)"/><rect x="60" y="66" width="6" height="6" transform="rotate(0,63,69)"/><rect x="78" y="66" width="6" height="6" transform="rotate(0,81,69)"/><rect x="84" y="66" width="6" height="6" transform="rotate(0,87,69)"/><rect x="108" y="66" width="6" height="6" transform="rotate(0,111,69)"/><rect x="114" y="66" width="6" height="6" transform="rotate(0,117,69)"/><rect x="120" y="66" width="6" height="6" transform="rotate(0,123,69)"/><rect x="150" y="66" width="6" height="6" transform="rotate(0,153,69)"/><rect x="156" y="66" width="6" height="6" transform="rotate(0,159,69)"/><rect x="162" y="66" width="6" height="6" transform="rotate(0,165,69)"/><rect x="168" y="66" width="6" height="6" transform="rotate(0,171,69)"/><rect x="198" y="66" width="6" height="6" transform="rotate(0,201,69)"/><rect x="204" y="66" width="6" height="6" transform="rotate(0,207,69)"/><rect x="210" y="66" width="6" height="6" transform="rotate(0,213,69)"/><rect x="216" y="66" width="6" height="6" transform="rotate(0,219,69)"/><rect x="228" y="66" width="6" height="6" transform="rotate(0,231,69)"/><rect x="12" y="72" width="6" height="6" transform="rotate(0,15,75)"/><rect x="48" y="72" width="6" height="6" transform="rotate(0,51,75)"/><rect x="54" y="72" width="6" height="6" transform="rotate(0,57,75)"/><rect x="60" y="72" width="6" height="6" transform="rotate(0,63,75)"/><rect x="72" y="72" width="6" height="6" transform="rotate(0,75,75)"/><rect x="84" y="72" width="6" height="6" transform="rotate(0,87,75)"/><rect x="102" y="72" width="6" height="6" transform="rotate(0,105,75)"/><rect x="114" y="72" width="6" height="6" transform="rotate(0,117,75)"/><rect x="120" y="72" width="6" height="6" transform="rotate(0,123,75)"/><rect x="126" y="72" width="6" height="6" transform="rotate(0,129,75)"/><rect x="132" y="72" width="6" height="6" transform="rotate(0,135,75)"/><rect x="150" y="72" width="6" height="6" transform="rotate(0,153,75)"/><rect x="162" y="72" width="6" height="6" transform="rotate(0,165,75)"/><rect x="174" y="72" width="6" height="6" transform="rotate(0,177,75)"/><rect x="180" y="72" width="6" height="6" transform="rotate(0,183,75)"/><rect x="186" y="72" width="6" height="6" transform="rotate(0,189,75)"/><rect x="192" y="72" width="6" height="6" transform="rotate(0,195,75)"/><rect x="204" y="72" width="6" height="6" transform="rotate(0,207,75)"/><rect x="210" y="72" width="6" height="6" transform="rotate(0,213,75)"/><rect x="228" y="72" width="6" height="6" transform="rotate(0,231,75)"/><rect x="12" y="78" width="6" height="6" transform="rotate(0,15,81)"/><rect x="24" y="78" width="6" height="6" transform="rotate(0,27,81)"/><rect x="30" y="78" width="6" height="6" transform="rotate(0,33,81)"/><rect x="54" y="78" width="6" height="6" transform="rotate(0,57,81)"/><rect x="90" y="78" width="6" height="6" transform="rotate(0,93,81)"/><rect x="114" y="78" width="6" height="6" transform="rotate(0,117,81)"/><rect x="126" y="78" width="6" height="6" transform="rotate(0,129,81)"/><rect x="144" y="78" width="6" height="6" transform="rotate(0,147,81)"/><rect x="168" y="78" width="6" height="6" transform="rotate(0,171,81)"/><rect x="186" y="78" width="6" height="6" transform="rotate(0,189,81)"/><rect x="192" y="78" width="6" height="6" transform="rotate(0,195,81)"/><rect x="198" y="78" width="6" height="6" transform="rotate(0,201,81)"/><rect x="204" y="78" width="6" height="6" transform="rotate(0,207,81)"/><rect x="210" y="78" width="6" height="6" transform="rotate(0,213,81)"/><rect x="216" y="78" width="6" height="6" transform="rotate(0,219,81)"/><rect x="222" y="78" width="6" height="6" transform="rotate(0,225,81)"/><rect x="228" y="78" width="6" height="6" transform="rotate(0,231,81)"/><rect x="18" y="84" width="6" height="6" transform="rotate(0,21,87)"/><rect x="30" y="84" width="6" height="6" transform="rotate(0,33,87)"/><rect x="42" y="84" width="6" height="6" transform="rotate(0,45,87)"/><rect x="48" y="84" width="6" height="6" transform="rotate(0,51,87)"/><rect x="84" y="84" width="6" height="6" transform="rotate(0,87,87)"/><rect x="90" y="84" width="6" height="6" transform="rotate(0,93,87)"/><rect x="96" y="84" width="6" height="6" transform="rotate(0,99,87)"/><rect x="102" y="84" width="6" height="6" transform="rotate(0,105,87)"/><rect x="114" y="84" width="6" height="6" transform="rotate(0,117,87)"/><rect x="120" y="84" width="6" height="6" transform="rotate(0,123,87)"/><rect x="156" y="84" width="6" height="6" transform="rotate(0,159,87)"/><rect x="180" y="84" width="6" height="6" transform="rotate(0,183,87)"/><rect x="192" y="84" width="6" height="6" transform="rotate(0,195,87)"/><rect x="204" y="84" width="6" height="6" transform="rotate(0,207,87)"/><rect x="228" y="84" width="6" height="6" transform="rotate(0,231,87)"/><rect x="12" y="90" width="6" height="6" transform="rotate(0,15,93)"/><rect x="24" y="90" width="6" height="6" transform="rotate(0,27,93)"/><rect x="30" y="90" width="6" height="6" transform="rotate(0,33,93)"/><rect x="42" y="90" width="6" height="6" transform="rotate(0,45,93)"/><rect x="78" y="90" width="6" height="6" transform="rotate(0,81,93)"/><rect x="108" y="90" width="6" height="6" transform="rotate(0,111,93)"/><rect x="114" y="90" width="6" height="6" transform="rotate(0,117,93)"/><rect x="120" y="90" width="6" height="6" transform="rotate(0,123,93)"/><rect x="138" y="90" width="6" height="6" transform="rotate(0,141,93)"/><rect x="150" y="90" width="6" height="6" transform="rotate(0,153,93)"/><rect x="162" y="90" width="6" height="6" transform="rotate(0,165,93)"/><rect x="168" y="90" width="6" height="6" transform="rotate(0,171,93)"/><rect x="174" y="90" width="6" height="6" transform="rotate(0,177,93)"/><rect x="180" y="90" width="6" height="6" transform="rotate(0,183,93)"/><rect x="186" y="90" width="6" height="6" transform="rotate(0,189,93)"/><rect x="204" y="90" width="6" height="6" transform="rotate(0,207,93)"/><rect x="216" y="90" width="6" height="6" transform="rotate(0,219,93)"/><rect x="12" y="96" width="6" height="6" transform="rotate(0,15,99)"/><rect x="24" y="96" width="6" height="6" transform="rotate(0,27,99)"/><rect x="48" y="96" width="6" height="6" transform="rotate(0,51,99)"/><rect x="54" y="96" width="6" height="6" transform="rotate(0,57,99)"/><rect x="66" y="96" width="6" height="6" transform="rotate(0,69,99)"/><rect x="84" y="96" width="6" height="6" transform="rotate(0,87,99)"/><rect x="90" y="96" width="6" height="6" transform="rotate(0,93,99)"/><rect x="96" y="96" width="6" height="6" transform="rotate(0,99,99)"/><rect x="102" y="96" width="6" height="6" transform="rotate(0,105,99)"/><rect x="120" y="96" width="6" height="6" transform="rotate(0,123,99)"/><rect x="126" y="96" width="6" height="6" transform="rotate(0,129,99)"/><rect x="132" y="96" width="6" height="6" transform="rotate(0,135,99)"/><rect x="174" y="96" width="6" height="6" transform="rotate(0,177,99)"/><rect x="180" y="96" width="6" height="6" transform="rotate(0,183,99)"/><rect x="198" y="96" width="6" height="6" transform="rotate(0,201,99)"/><rect x="204" y="96" width="6" height="6" transform="rotate(0,207,99)"/><rect x="210" y="96" width="6" height="6" transform="rotate(0,213,99)"/><rect x="216" y="96" width="6" height="6" transform="rotate(0,219,99)"/><rect x="222" y="96" width="6" height="6" transform="rotate(0,225,99)"/><rect x="228" y="96" width="6" height="6" transform="rotate(0,231,99)"/><rect x="12" y="102" width="6" height="6" transform="rotate(0,15,105)"/><rect x="18" y="102" width="6" height="6" transform="rotate(0,21,105)"/><rect x="30" y="102" width="6" height="6" transform="rotate(0,33,105)"/><rect x="42" y="102" width="6" height="6" transform="rotate(0,45,105)"/><rect x="66" y="102" width="6" height="6" transform="rotate(0,69,105)"/><rect x="90" y="102" width="6" height="6" transform="rotate(0,93,105)"/><rect x="108" y="102" width="6" height="6" transform="rotate(0,111,105)"/><rect x="114" y="102" width="6" height="6" transform="rotate(0,117,105)"/><rect x="120" y="102" width="6" height="6" transform="rotate(0,123,105)"/><rect x="138" y="102" width="6" height="6" transform="rotate(0,141,105)"/><rect x="144" y="102" width="6" height="6" transform="rotate(0,147,105)"/><rect x="150" y="102" width="6" height="6" transform="rotate(0,153,105)"/><rect x="168" y="102" width="6" height="6" transform="rotate(0,171,105)"/><rect x="186" y="102" width="6" height="6" transform="rotate(0,189,105)"/><rect x="192" y="102" width="6" height="6" transform="rotate(0,195,105)"/><rect x="198" y="102" width="6" height="6" transform="rotate(0,201,105)"/><rect x="204" y="102" width="6" height="6" transform="rotate(0,207,105)"/><rect x="210" y="102" width="6" height="6" transform="rotate(0,213,105)"/><rect x="216" y="102" width="6" height="6" transform="rotate(0,219,105)"/><rect x="222" y="102" width="6" height="6" transform="rotate(0,225,105)"/><rect x="12" y="108" width="6" height="6" transform="rotate(0,15,111)"/><rect x="18" y="108" width="6" height="6" transform="rotate(0,21,111)"/><rect x="30" y="108" width="6" height="6" transform="rotate(0,33,111)"/><rect x="36" y="108" width="6" height="6" transform="rotate(0,39,111)"/><rect x="48" y="108" width="6" height="6" transform="rotate(0,51,111)"/><rect x="66" y="108" width="6" height="6" transform="rotate(0,69,111)"/><rect x="72" y="108" width="6" height="6" transform="rotate(0,75,111)"/><rect x="84" y="108" width="6" height="6" transform="rotate(0,87,111)"/><rect x="96" y="108" width="6" height="6" transform="rotate(0,99,111)"/><rect x="108" y="108" width="6" height="6" transform="rotate(0,111,111)"/><rect x="138" y="108" width="6" height="6" transform="rotate(0,141,111)"/><rect x="144" y="108" width="6" height="6" transform="rotate(0,147,111)"/><rect x="156" y="108" width="6" height="6" transform="rotate(0,159,111)"/><rect x="162" y="108" width="6" height="6" transform="rotate(0,165,111)"/><rect x="168" y="108" width="6" height="6" transform="rotate(0,171,111)"/><rect x="174" y="108" width="6" height="6" transform="rotate(0,177,111)"/><rect x="180" y="108" width="6" height="6" transform="rotate(0,183,111)"/><rect x="192" y="108" width="6" height="6" transform="rotate(0,195,111)"/><rect x="216" y="108" width="6" height="6" transform="rotate(0,219,111)"/><rect x="228" y="108" width="6" height="6" transform="rotate(0,231,111)"/><rect x="18" y="114" width="6" height="6" transform="rotate(0,21,117)"/><rect x="24" y="114" width="6" height="6" transform="rotate(0,27,117)"/><rect x="42" y="114" width="6" height="6" transform="rotate(0,45,117)"/><rect x="60" y="114" width="6" height="6" transform="rotate(0,63,117)"/><rect x="66" y="114" width="6" height="6" transform="rotate(0,69,117)"/><rect x="90" y="114" width="6" height="6" transform="rotate(0,93,117)"/><rect x="96" y="114" width="6" height="6" transform="rotate(0,99,117)"/><rect x="102" y="114" width="6" height="6" transform="rotate(0,105,117)"/><rect x="108" y="114" width="6" height="6" transform="rotate(0,111,117)"/><rect x="126" y="114" width="6" height="6" transform="rotate(0,129,117)"/><rect x="132" y="114" width="6" height="6" transform="rotate(0,135,117)"/><rect x="144" y="114" width="6" height="6" transform="rotate(0,147,117)"/><rect x="174" y="114" width="6" height="6" transform="rotate(0,177,117)"/><rect x="198" y="114" width="6" height="6" transform="rotate(0,201,117)"/><rect x="210" y="114" width="6" height="6" transform="rotate(0,213,117)"/><rect x="222" y="114" width="6" height="6" transform="rotate(0,225,117)"/><rect x="12" y="120" width="6" height="6" transform="rotate(0,15,123)"/><rect x="42" y="120" width="6" height="6" transform="rotate(0,45,123)"/><rect x="48" y="120" width="6" height="6" transform="rotate(0,51,123)"/><rect x="72" y="120" width="6" height="6" transform="rotate(0,75,123)"/><rect x="84" y="120" width="6" height="6" transform="rotate(0,87,123)"/><rect x="90" y="120" width="6" height="6" transform="rotate(0,93,123)"/><rect x="120" y="120" width="6" height="6" transform="rotate(0,123,123)"/><rect x="126" y="120" width="6" height="6" transform="rotate(0,129,123)"/><rect x="132" y="120" width="6" height="6" transform="rotate(0,135,123)"/><rect x="144" y="120" width="6" height="6" transform="rotate(0,147,123)"/><rect x="150" y="120" width="6" height="6" transform="rotate(0,153,123)"/><rect x="156" y="120" width="6" height="6" transform="rotate(0,159,123)"/><rect x="168" y="120" width="6" height="6" transform="rotate(0,171,123)"/><rect x="174" y="120" width="6" height="6" transform="rotate(0,177,123)"/><rect x="180" y="120" width="6" height="6" transform="rotate(0,183,123)"/><rect x="186" y="120" width="6" height="6" transform="rotate(0,189,123)"/><rect x="192" y="120" width="6" height="6" transform="rotate(0,195,123)"/><rect x="228" y="120" width="6" height="6" transform="rotate(0,231,123)"/><rect x="18" y="126" width="6" height="6" transform="rotate(0,21,129)"/><rect x="24" y="126" width="6" height="6" transform="rotate(0,27,129)"/><rect x="54" y="126" width="6" height="6" transform="rotate(0,57,129)"/><rect x="60" y="126" width="6" height="6" transform="rotate(0,63,129)"/><rect x="66" y="126" width="6" height="6" transform="rotate(0,69,129)"/><rect x="114" y="126" width="6" height="6" transform="rotate(0,117,129)"/><rect x="120" y="126" width="6" height="6" transform="rotate(0,123,129)"/><rect x="162" y="126" width="6" height="6" transform="rotate(0,165,129)"/><rect x="168" y="126" width="6" height="6" transform="rotate(0,171,129)"/><rect x="204" y="126" width="6" height="6" transform="rotate(0,207,129)"/><rect x="222" y="126" width="6" height="6" transform="rotate(0,225,129)"/><rect x="228" y="126" width="6" height="6" transform="rotate(0,231,129)"/><rect x="12" y="132" width="6" height="6" transform="rotate(0,15,135)"/><rect x="24" y="132" width="6" height="6" transform="rotate(0,27,135)"/><rect x="36" y="132" width="6" height="6" transform="rotate(0,39,135)"/><rect x="42" y="132" width="6" height="6" transform="rotate(0,45,135)"/><rect x="48" y="132" width="6" height="6" transform="rotate(0,51,135)"/><rect x="54" y="132" width="6" height="6" transform="rotate(0,57,135)"/><rect x="84" y="132" width="6" height="6" transform="rotate(0,87,135)"/><rect x="96" y="132" width="6" height="6" transform="rotate(0,99,135)"/><rect x="102" y="132" width="6" height="6" transform="rotate(0,105,135)"/><rect x="156" y="132" width="6" height="6" transform="rotate(0,159,135)"/><rect x="168" y="132" width="6" height="6" transform="rotate(0,171,135)"/><rect x="180" y="132" width="6" height="6" transform="rotate(0,183,135)"/><rect x="192" y="132" width="6" height="6" transform="rotate(0,195,135)"/><rect x="204" y="132" width="6" height="6" transform="rotate(0,207,135)"/><rect x="210" y="132" width="6" height="6" transform="rotate(0,213,135)"/><rect x="12" y="138" width="6" height="6" transform="rotate(0,15,141)"/><rect x="24" y="138" width="6" height="6" transform="rotate(0,27,141)"/><rect x="36" y="138" width="6" height="6" transform="rotate(0,39,141)"/><rect x="66" y="138" width="6" height="6" transform="rotate(0,69,141)"/><rect x="72" y="138" width="6" height="6" transform="rotate(0,75,141)"/><rect x="84" y="138" width="6" height="6" transform="rotate(0,87,141)"/><rect x="108" y="138" width="6" height="6" transform="rotate(0,111,141)"/><rect x="114" y="138" width="6" height="6" transform="rotate(0,117,141)"/><rect x="120" y="138" width="6" height="6" transform="rotate(0,123,141)"/><rect x="144" y="138" width="6" height="6" transform="rotate(0,147,141)"/><rect x="150" y="138" width="6" height="6" transform="rotate(0,153,141)"/><rect x="168" y="138" width="6" height="6" transform="rotate(0,171,141)"/><rect x="174" y="138" width="6" height="6" transform="rotate(0,177,141)"/><rect x="180" y="138" width="6" height="6" transform="rotate(0,183,141)"/><rect x="198" y="138" width="6" height="6" transform="rotate(0,201,141)"/><rect x="204" y="138" width="6" height="6" transform="rotate(0,207,141)"/><rect x="210" y="138" width="6" height="6" transform="rotate(0,213,141)"/><rect x="222" y="138" width="6" height="6" transform="rotate(0,225,141)"/><rect x="228" y="138" width="6" height="6" transform="rotate(0,231,141)"/><rect x="24" y="144" width="6" height="6" transform="rotate(0,27,147)"/><rect x="30" y="144" width="6" height="6" transform="rotate(0,33,147)"/><rect x="48" y="144" width="6" height="6" transform="rotate(0,51,147)"/><rect x="60" y="144" width="6" height="6" transform="rotate(0,63,147)"/><rect x="66" y="144" width="6" height="6" transform="rotate(0,69,147)"/><rect x="78" y="144" width="6" height="6" transform="rotate(0,81,147)"/><rect x="108" y="144" width="6" height="6" transform="rotate(0,111,147)"/><rect x="120" y="144" width="6" height="6" transform="rotate(0,123,147)"/><rect x="126" y="144" width="6" height="6" transform="rotate(0,129,147)"/><rect x="132" y="144" width="6" height="6" transform="rotate(0,135,147)"/><rect x="150" y="144" width="6" height="6" transform="rotate(0,153,147)"/><rect x="156" y="144" width="6" height="6" transform="rotate(0,159,147)"/><rect x="174" y="144" width="6" height="6" transform="rotate(0,177,147)"/><rect x="192" y="144" width="6" height="6" transform="rotate(0,195,147)"/><rect x="204" y="144" width="6" height="6" transform="rotate(0,207,147)"/><rect x="228" y="144" width="6" height="6" transform="rotate(0,231,147)"/><rect x="12" y="150" width="6" height="6" transform="rotate(0,15,153)"/><rect x="18" y="150" width="6" height="6" transform="rotate(0,21,153)"/><rect x="24" y="150" width="6" height="6" transform="rotate(0,27,153)"/><rect x="36" y="150" width="6" height="6" transform="rotate(0,39,153)"/><rect x="42" y="150" width="6" height="6" transform="rotate(0,45,153)"/><rect x="54" y="150" width="6" height="6" transform="rotate(0,57,153)"/><rect x="60" y="150" width="6" height="6" transform="rotate(0,63,153)"/><rect x="84" y="150" width="6" height="6" transform="rotate(0,87,153)"/><rect x="90" y="150" width="6" height="6" transform="rotate(0,93,153)"/><rect x="96" y="150" width="6" height="6" transform="rotate(0,99,153)"/><rect x="108" y="150" width="6" height="6" transform="rotate(0,111,153)"/><rect x="114" y="150" width="6" height="6" transform="rotate(0,117,153)"/><rect x="120" y="150" width="6" height="6" transform="rotate(0,123,153)"/><rect x="132" y="150" width="6" height="6" transform="rotate(0,135,153)"/><rect x="150" y="150" width="6" height="6" transform="rotate(0,153,153)"/><rect x="168" y="150" width="6" height="6" transform="rotate(0,171,153)"/><rect x="174" y="150" width="6" height="6" transform="rotate(0,177,153)"/><rect x="180" y="150" width="6" height="6" transform="rotate(0,183,153)"/><rect x="192" y="150" width="6" height="6" transform="rotate(0,195,153)"/><rect x="198" y="150" width="6" height="6" transform="rotate(0,201,153)"/><rect x="216" y="150" width="6" height="6" transform="rotate(0,219,153)"/><rect x="228" y="150" width="6" height="6" transform="rotate(0,231,153)"/><rect x="12" y="156" width="6" height="6" transform="rotate(0,15,159)"/><rect x="18" y="156" width="6" height="6" transform="rotate(0,21,159)"/><rect x="24" y="156" width="6" height="6" transform="rotate(0,27,159)"/><rect x="30" y="156" width="6" height="6" transform="rotate(0,33,159)"/><rect x="36" y="156" width="6" height="6" transform="rotate(0,39,159)"/><rect x="42" y="156" width="6" height="6" transform="rotate(0,45,159)"/><rect x="48" y="156" width="6" height="6" transform="rotate(0,51,159)"/><rect x="60" y="156" width="6" height="6" transform="rotate(0,63,159)"/><rect x="66" y="156" width="6" height="6" transform="rotate(0,69,159)"/><rect x="72" y="156" width="6" height="6" transform="rotate(0,75,159)"/><rect x="84" y="156" width="6" height="6" transform="rotate(0,87,159)"/><rect x="90" y="156" width="6" height="6" transform="rotate(0,93,159)"/><rect x="108" y="156" width="6" height="6" transform="rotate(0,111,159)"/><rect x="150" y="156" width="6" height="6" transform="rotate(0,153,159)"/><rect x="156" y="156" width="6" height="6" transform="rotate(0,159,159)"/><rect x="180" y="156" width="6" height="6" transform="rotate(0,183,159)"/><rect x="192" y="156" width="6" height="6" transform="rotate(0,195,159)"/><rect x="198" y="156" width="6" height="6" transform="rotate(0,201,159)"/><rect x="210" y="156" width="6" height="6" transform="rotate(0,213,159)"/><rect x="12" y="162" width="6" height="6" transform="rotate(0,15,165)"/><rect x="24" y="162" width="6" height="6" transform="rotate(0,27,165)"/><rect x="30" y="162" width="6" height="6" transform="rotate(0,33,165)"/><rect x="42" y="162" width="6" height="6" transform="rotate(0,45,165)"/><rect x="60" y="162" width="6" height="6" transform="rotate(0,63,165)"/><rect x="84" y="162" width="6" height="6" transform="rotate(0,87,165)"/><rect x="90" y="162" width="6" height="6" transform="rotate(0,93,165)"/><rect x="96" y="162" width="6" height="6" transform="rotate(0,99,165)"/><rect x="108" y="162" width="6" height="6" transform="rotate(0,111,165)"/><rect x="114" y="162" width="6" height="6" transform="rotate(0,117,165)"/><rect x="138" y="162" width="6" height="6" transform="rotate(0,141,165)"/><rect x="150" y="162" width="6" height="6" transform="rotate(0,153,165)"/><rect x="162" y="162" width="6" height="6" transform="rotate(0,165,165)"/><rect x="168" y="162" width="6" height="6" transform="rotate(0,171,165)"/><rect x="174" y="162" width="6" height="6" transform="rotate(0,177,165)"/><rect x="186" y="162" width="6" height="6" transform="rotate(0,189,165)"/><rect x="204" y="162" width="6" height="6" transform="rotate(0,207,165)"/><rect x="210" y="162" width="6" height="6" transform="rotate(0,213,165)"/><rect x="222" y="162" width="6" height="6" transform="rotate(0,225,165)"/><rect x="12" y="168" width="6" height="6" transform="rotate(0,15,171)"/><rect x="18" y="168" width="6" height="6" transform="rotate(0,21,171)"/><rect x="36" y="168" width="6" height="6" transform="rotate(0,39,171)"/><rect x="48" y="168" width="6" height="6" transform="rotate(0,51,171)"/><rect x="54" y="168" width="6" height="6" transform="rotate(0,57,171)"/><rect x="60" y="168" width="6" height="6" transform="rotate(0,63,171)"/><rect x="78" y="168" width="6" height="6" transform="rotate(0,81,171)"/><rect x="96" y="168" width="6" height="6" transform="rotate(0,99,171)"/><rect x="108" y="168" width="6" height="6" transform="rotate(0,111,171)"/><rect x="114" y="168" width="6" height="6" transform="rotate(0,117,171)"/><rect x="126" y="168" width="6" height="6" transform="rotate(0,129,171)"/><rect x="132" y="168" width="6" height="6" transform="rotate(0,135,171)"/><rect x="138" y="168" width="6" height="6" transform="rotate(0,141,171)"/><rect x="144" y="168" width="6" height="6" transform="rotate(0,147,171)"/><rect x="168" y="168" width="6" height="6" transform="rotate(0,171,171)"/><rect x="174" y="168" width="6" height="6" transform="rotate(0,177,171)"/><rect x="192" y="168" width="6" height="6" transform="rotate(0,195,171)"/><rect x="216" y="168" width="6" height="6" transform="rotate(0,219,171)"/><rect x="222" y="168" width="6" height="6" transform="rotate(0,225,171)"/><rect x="228" y="168" width="6" height="6" transform="rotate(0,231,171)"/><rect x="12" y="174" width="6" height="6" transform="rotate(0,15,177)"/><rect x="30" y="174" width="6" height="6" transform="rotate(0,33,177)"/><rect x="42" y="174" width="6" height="6" transform="rotate(0,45,177)"/><rect x="60" y="174" width="6" height="6" transform="rotate(0,63,177)"/><rect x="66" y="174" width="6" height="6" transform="rotate(0,69,177)"/><rect x="90" y="174" width="6" height="6" transform="rotate(0,93,177)"/><rect x="102" y="174" width="6" height="6" transform="rotate(0,105,177)"/><rect x="108" y="174" width="6" height="6" transform="rotate(0,111,177)"/><rect x="114" y="174" width="6" height="6" transform="rotate(0,117,177)"/><rect x="126" y="174" width="6" height="6" transform="rotate(0,129,177)"/><rect x="156" y="174" width="6" height="6" transform="rotate(0,159,177)"/><rect x="168" y="174" width="6" height="6" transform="rotate(0,171,177)"/><rect x="174" y="174" width="6" height="6" transform="rotate(0,177,177)"/><rect x="180" y="174" width="6" height="6" transform="rotate(0,183,177)"/><rect x="186" y="174" width="6" height="6" transform="rotate(0,189,177)"/><rect x="210" y="174" width="6" height="6" transform="rotate(0,213,177)"/><rect x="216" y="174" width="6" height="6" transform="rotate(0,219,177)"/><rect x="222" y="174" width="6" height="6" transform="rotate(0,225,177)"/><rect x="12" y="180" width="6" height="6" transform="rotate(0,15,183)"/><rect x="30" y="180" width="6" height="6" transform="rotate(0,33,183)"/><rect x="42" y="180" width="6" height="6" transform="rotate(0,45,183)"/><rect x="48" y="180" width="6" height="6" transform="rotate(0,51,183)"/><rect x="54" y="180" width="6" height="6" transform="rotate(0,57,183)"/><rect x="60" y="180" width="6" height="6" transform="rotate(0,63,183)"/><rect x="66" y="180" width="6" height="6" transform="rotate(0,69,183)"/><rect x="102" y="180" width="6" height="6" transform="rotate(0,105,183)"/><rect x="114" y="180" width="6" height="6" transform="rotate(0,117,183)"/><rect x="144" y="180" width="6" height="6" transform="rotate(0,147,183)"/><rect x="156" y="180" width="6" height="6" transform="rotate(0,159,183)"/><rect x="162" y="180" width="6" height="6" transform="rotate(0,165,183)"/><rect x="174" y="180" width="6" height="6" transform="rotate(0,177,183)"/><rect x="180" y="180" width="6" height="6" transform="rotate(0,183,183)"/><rect x="186" y="180" width="6" height="6" transform="rotate(0,189,183)"/><rect x="192" y="180" width="6" height="6" transform="rotate(0,195,183)"/><rect x="198" y="180" width="6" height="6" transform="rotate(0,201,183)"/><rect x="204" y="180" width="6" height="6" transform="rotate(0,207,183)"/><rect x="210" y="180" width="6" height="6" transform="rotate(0,213,183)"/><rect x="216" y="180" width="6" height="6" transform="rotate(0,219,183)"/><rect x="60" y="186" width="6" height="6" transform="rotate(0,63,189)"/><rect x="72" y="186" width="6" height="6" transform="rotate(0,75,189)"/><rect x="78" y="186" width="6" height="6" transform="rotate(0,81,189)"/><rect x="84" y="186" width="6" height="6" transform="rotate(0,87,189)"/><rect x="90" y="186" width="6" height="6" transform="rotate(0,93,189)"/><rect x="114" y="186" width="6" height="6" transform="rotate(0,117,189)"/><rect x="120" y="186" width="6" height="6" transform="rotate(0,123,189)"/><rect x="132" y="186" width="6" height="6" transform="rotate(0,135,189)"/><rect x="144" y="186" width="6" height="6" transform="rotate(0,147,189)"/><rect x="162" y="186" width="6" height="6" transform="rotate(0,165,189)"/><rect x="168" y="186" width="6" height="6" transform="rotate(0,171,189)"/><rect x="174" y="186" width="6" height="6" transform="rotate(0,177,189)"/><rect x="180" y="186" width="6" height="6" transform="rotate(0,183,189)"/><rect x="204" y="186" width="6" height="6" transform="rotate(0,207,189)"/><rect x="210" y="186" width="6" height="6" transform="rotate(0,213,189)"/><rect x="216" y="186" width="6" height="6" transform="rotate(0,219,189)"/><rect x="222" y="186" width="6" height="6" transform="rotate(0,225,189)"/><rect x="84" y="192" width="6" height="6" transform="rotate(0,87,195)"/><rect x="90" y="192" width="6" height="6" transform="rotate(0,93,195)"/><rect x="96" y="192" width="6" height="6" transform="rotate(0,99,195)"/><rect x="108" y="192" width="6" height="6" transform="rotate(0,111,195)"/><rect x="114" y="192" width="6" height="6" transform="rotate(0,117,195)"/><rect x="120" y="192" width="6" height="6" transform="rotate(0,123,195)"/><rect x="138" y="192" width="6" height="6" transform="rotate(0,141,195)"/><rect x="144" y="192" width="6" height="6" transform="rotate(0,147,195)"/><rect x="150" y="192" width="6" height="6" transform="rotate(0,153,195)"/><rect x="156" y="192" width="6" height="6" transform="rotate(0,159,195)"/><rect x="174" y="192" width="6" height="6" transform="rotate(0,177,195)"/><rect x="180" y="192" width="6" height="6" transform="rotate(0,183,195)"/><rect x="192" y="192" width="6" height="6" transform="rotate(0,195,195)"/><rect x="204" y="192" width="6" height="6" transform="rotate(0,207,195)"/><rect x="210" y="192" width="6" height="6" transform="rotate(0,213,195)"/><rect x="216" y="192" width="6" height="6" transform="rotate(0,219,195)"/><rect x="228" y="192" width="6" height="6" transform="rotate(0,231,195)"/><rect x="60" y="198" width="6" height="6" transform="rotate(0,63,201)"/><rect x="72" y="198" width="6" height="6" transform="rotate(0,75,201)"/><rect x="78" y="198" width="6" height="6" transform="rotate(0,81,201)"/><rect x="90" y="198" width="6" height="6" transform="rotate(0,93,201)"/><rect x="102" y="198" width="6" height="6" transform="rotate(0,105,201)"/><rect x="144" y="198" width="6" height="6" transform="rotate(0,147,201)"/><rect x="150" y="198" width="6" height="6" transform="rotate(0,153,201)"/><rect x="156" y="198" width="6" height="6" transform="rotate(0,159,201)"/><rect x="162" y="198" width="6" height="6" transform="rotate(0,165,201)"/><rect x="168" y="198" width="6" height="6" transform="rotate(0,171,201)"/><rect x="174" y="198" width="6" height="6" transform="rotate(0,177,201)"/><rect x="180" y="198" width="6" height="6" transform="rotate(0,183,201)"/><rect x="204" y="198" width="6" height="6" transform="rotate(0,207,201)"/><rect x="210" y="198" width="6" height="6" transform="rotate(0,213,201)"/><rect x="222" y="198" width="6" height="6" transform="rotate(0,225,201)"/><rect x="228" y="198" width="6" height="6" transform="rotate(0,231,201)"/><rect x="60" y="204" width="6" height="6" transform="rotate(0,63,207)"/><rect x="72" y="204" width="6" height="6" transform="rotate(0,75,207)"/><rect x="78" y="204" width="6" height="6" transform="rotate(0,81,207)"/><rect x="84" y="204" width="6" height="6" transform="rotate(0,87,207)"/><rect x="96" y="204" width="6" height="6" transform="rotate(0,99,207)"/><rect x="108" y="204" width="6" height="6" transform="rotate(0,111,207)"/><rect x="114" y="204" width="6" height="6" transform="rotate(0,117,207)"/><rect x="120" y="204" width="6" height="6" transform="rotate(0,123,207)"/><rect x="126" y="204" width="6" height="6" transform="rotate(0,129,207)"/><rect x="138" y="204" width="6" height="6" transform="rotate(0,141,207)"/><rect x="144" y="204" width="6" height="6" transform="rotate(0,147,207)"/><rect x="168" y="204" width="6" height="6" transform="rotate(0,171,207)"/><rect x="174" y="204" width="6" height="6" transform="rotate(0,177,207)"/><rect x="180" y="204" width="6" height="6" transform="rotate(0,183,207)"/><rect x="186" y="204" width="6" height="6" transform="rotate(0,189,207)"/><rect x="192" y="204" width="6" height="6" transform="rotate(0,195,207)"/><rect x="198" y="204" width="6" height="6" transform="rotate(0,201,207)"/><rect x="204" y="204" width="6" height="6" transform="rotate(0,207,207)"/><rect x="60" y="210" width="6" height="6" transform="rotate(0,63,213)"/><rect x="66" y="210" width="6" height="6" transform="rotate(0,69,213)"/><rect x="90" y="210" width="6" height="6" transform="rotate(0,93,213)"/><rect x="102" y="210" width="6" height="6" transform="rotate(0,105,213)"/><rect x="108" y="210" width="6" height="6" transform="rotate(0,111,213)"/><rect x="120" y="210" width="6" height="6" transform="rotate(0,123,213)"/><rect x="138" y="210" width="6" height="6" transform="rotate(0,141,213)"/><rect x="150" y="210" width="6" height="6" transform="rotate(0,153,213)"/><rect x="162" y="210" width="6" height="6" transform="rotate(0,165,213)"/><rect x="168" y="210" width="6" height="6" transform="rotate(0,171,213)"/><rect x="174" y="210" width="6" height="6" transform="rotate(0,177,213)"/><rect x="180" y="210" width="6" height="6" transform="rotate(0,183,213)"/><rect x="192" y="210" width="6" height="6" transform="rotate(0,195,213)"/><rect x="204" y="210" width="6" height="6" transform="rotate(0,207,213)"/><rect x="210" y="210" width="6" height="6" transform="rotate(0,213,213)"/><rect x="222" y="210" width="6" height="6" transform="rotate(0,225,213)"/><rect x="78" y="216" width="6" height="6" transform="rotate(0,81,219)"/><rect x="90" y="216" width="6" height="6" transform="rotate(0,93,219)"/><rect x="96" y="216" width="6" height="6" transform="rotate(0,99,219)"/><rect x="108" y="216" width="6" height="6" transform="rotate(0,111,219)"/><rect x="120" y="216" width="6" height="6" transform="rotate(0,123,219)"/><rect x="126" y="216" width="6" height="6" transform="rotate(0,129,219)"/><rect x="132" y="216" width="6" height="6" transform="rotate(0,135,219)"/><rect x="144" y="216" width="6" height="6" transform="rotate(0,147,219)"/><rect x="150" y="216" width="6" height="6" transform="rotate(0,153,219)"/><rect x="168" y="216" width="6" height="6" transform="rotate(0,171,219)"/><rect x="180" y="216" width="6" height="6" transform="rotate(0,183,219)"/><rect x="198" y="216" width="6" height="6" transform="rotate(0,201,219)"/><rect x="204" y="216" width="6" height="6" transform="rotate(0,207,219)"/><rect x="210" y="216" width="6" height="6" transform="rotate(0,213,219)"/><rect x="216" y="216" width="6" height="6" transform="rotate(0,219,219)"/><rect x="222" y="216" width="6" height="6" transform="rotate(0,225,219)"/><rect x="228" y="216" width="6" height="6" transform="rotate(0,231,219)"/><rect x="60" y="222" width="6" height="6" transform="rotate(0,63,225)"/><rect x="78" y="222" width="6" height="6" transform="rotate(0,81,225)"/><rect x="96" y="222" width="6" height="6" transform="rotate(0,99,225)"/><rect x="102" y="222" width="6" height="6" transform="rotate(0,105,225)"/><rect x="114" y="222" width="6" height="6" transform="rotate(0,117,225)"/><rect x="126" y="222" width="6" height="6" transform="rotate(0,129,225)"/><rect x="132" y="222" width="6" height="6" transform="rotate(0,135,225)"/><rect x="156" y="222" width="6" height="6" transform="rotate(0,159,225)"/><rect x="168" y="222" width="6" height="6" transform="rotate(0,171,225)"/><rect x="192" y="222" width="6" height="6" transform="rotate(0,195,225)"/><rect x="198" y="222" width="6" height="6" transform="rotate(0,201,225)"/><rect x="210" y="222" width="6" height="6" transform="rotate(0,213,225)"/><rect x="216" y="222" width="6" height="6" transform="rotate(0,219,225)"/><rect x="222" y="222" width="6" height="6" transform="rotate(0,225,225)"/><rect x="228" y="222" width="6" height="6" transform="rotate(0,231,225)"/><rect x="72" y="228" width="6" height="6" transform="rotate(0,75,231)"/><rect x="84" y="228" width="6" height="6" transform="rotate(0,87,231)"/><rect x="96" y="228" width="6" height="6" transform="rotate(0,99,231)"/><rect x="102" y="228" width="6" height="6" transform="rotate(0,105,231)"/><rect x="108" y="228" width="6" height="6" transform="rotate(0,111,231)"/><rect x="114" y="228" width="6" height="6" transform="rotate(0,117,231)"/><rect x="132" y="228" width="6" height="6" transform="rotate(0,135,231)"/><rect x="144" y="228" width="6" height="6" transform="rotate(0,147,231)"/><rect x="150" y="228" width="6" height="6" transform="rotate(0,153,231)"/><rect x="180" y="228" width="6" height="6" transform="rotate(0,183,231)"/><rect x="186" y="228" width="6" height="6" transform="rotate(0,189,231)"/><rect x="192" y="228" width="6" height="6" transform="rotate(0,195,231)"/><rect x="210" y="228" width="6" height="6" transform="rotate(0,213,231)"/><rect x="228" y="228" width="6" height="6" transform="rotate(0,231,231)"/></g></svg>