<svg xmlns="http://www.w3.org/2000/svg" xmlns:xlink="http://www.w3.org/1999/xlink" viewBox="0 0 1208.38 351.175" enable-background="new 0 0 1208.38 351.175" xml:space="preserve">
                <polygon fill="#1C70B8" points="237.7,4.529 184.685,4.529 92.3,334.233 180.586,334.233 180.586,100.353 255.785,100.353
                    279.667,42.019 295.006,4.529 "></polygon>
                <polygon fill="#1C1C1C" points="0,29.644 0,103.816 76.698,103.816 76.698,351.175 78.665,351.175 170.303,29.644 "></polygon>
                <polygon fill="#1D1D1B" points="212.958,334.628 212.958,181.449 326.658,181.449 326.658,218.067 258.677,218.067 258.677,240.085
                    319.713,240.085 319.713,273.359 258.677,273.359 258.677,298.012 326.658,298.012 326.658,334.628 "></polygon>
                <path fill="#1D1D1B" d="M406.848,218.067h-12.207v33.983h12.207c16.522,0,20.347-6.458,20.347-16.752
                    C427.195,224.055,423.13,218.067,406.848,218.067 M427.91,334.628l-33.269-56.724v56.724h-45.953V181.449h59.837
                    c59.844,0,65.1,31.831,65.1,53.849c0,20.588-9.814,39.024-32.787,43.328l44.282,56.002H427.91z"></path>
                <rect x="496.382" y="181.449" fill="#1D1D1B" width="45.962" height="153.179"></rect>
                <polygon fill="#1D1D1B" points="641.204,218.067 641.204,334.628 595.724,334.628 595.724,218.067 559.583,218.067 559.583,181.449
                    677.347,181.449 677.347,218.067 "></polygon>
                <path fill="#1D1D1B" d="M908.353,217.825h-12.211v33.997h12.211c16.518,0,20.354-6.458,20.354-16.752
                    C928.707,223.813,924.628,217.825,908.353,217.825 M928.316,335.385l-33.273-56.724v56.724h-45.95V182.196h59.832
                    c59.845,0,65.104,31.841,65.104,53.861c0,20.587-9.812,39.009-32.792,43.314l44.289,56.014H928.316z"></path>
                <rect x="998.007" y="182.196" fill="#1D1D1B" width="45.962" height="153.189"></rect>
                <path fill="#1D1D1B" d="M757.321,214.711c-26.089,0-27.768,19.144-27.768,41.884c0,22.74,1.679,42.126,27.768,42.126
                    c26.329,0,27.76-19.387,27.76-41.885C785.081,233.855,783.65,214.711,757.321,214.711 M757.321,335.591
                    c-62.478,0-74.209-40.455-74.209-78.996c0-38.529,11.977-78.979,74.209-78.979c62.465,0,74.437,40.45,74.437,79.221
                    C831.757,295.136,819.786,335.591,757.321,335.591"></path>
                <path fill="#1D1D1B" d="M1133.943,214.567c-26.089,0-27.762,19.156-27.762,41.884c0,22.74,1.673,42.137,27.762,42.137
                    c26.329,0,27.761-19.396,27.761-41.896C1161.704,233.724,1160.272,214.567,1133.943,214.567 M1133.943,335.446
                    c-62.479,0-74.201-40.453-74.201-78.994c0-38.528,11.97-78.974,74.201-78.974c62.465,0,74.438,40.445,74.438,79.214
                    C1208.38,294.993,1196.408,335.446,1133.943,335.446"></path>
                <line fill="none" stroke="#FFFFFF" stroke-width="1.35" stroke-miterlimit="10" x1="182.767" y1="0.182" x2="88.272" y2="337.744"></line>
            </svg>
